<?xml version="1.0" encoding="utf-8"?>
<!-- Generator: Adobe Illustrator 17.0.0, SVG Export Plug-In . SVG Version: 6.00 Build 0)  -->
<!DOCTYPE svg PUBLIC "-//W3C//DTD SVG 1.1//EN" "http://www.w3.org/Graphics/SVG/1.1/DTD/svg11.dtd">
<svg version="1.1" id="Layer_1" xmlns="http://www.w3.org/2000/svg" xmlns:xlink="http://www.w3.org/1999/xlink" x="0px" y="0px"
	 width="612px" height="612px" viewBox="0 0 612 612" enable-background="new 0 0 612 612" xml:space="preserve">
<g>
	<g>
		<path fill="#603913" d="M-1.933,277.884c0-14.608,0-29.216,0-43.824c7.384,1.979,14.651,2.709,22.488-2.571
			c-2.389-2.459-4.16-5.643-6.785-6.691c-4.976-1.986-10.441-2.748-15.703-4.018c0-7.083,0-14.165,0-21.248
			c3.555,1.95,7.111,3.9,10.854,5.953c3.517-13.744-0.413-27.249-10.854-39.153c0-55.186,0-110.372,0-166c27.444,0,54.89,0,82.336,0
			c0.584,15.763,5.598,29.309,19.489,39.172c4.704-13.778,4.661-26.653-2.225-39.172c23.461,0,46.923,0,70.384,0
			c3.187,3.41,5.725,7.88,11.952,7.395c0-2.697,0-5.046,0-7.395c50.464,0,100.928,0,151.392,0
			c2.692,9.726,3.855,20.238,8.378,29.021c11.068,21.495,23.978,42.032,35.555,63.277c5.552,10.189,11.595,20.682,14.187,31.791
			c5.112,21.908-2.973,41.28-16.536,58.373c-4.235,5.337-9.643,9.742-14.515,14.573c2.14-27.492,2.032-52.917-21.354-71.52
			c2.391,3.86,5.89,7.087,8.215,11.009c9.69,16.341,11.648,34.082,7.581,52.356c-1.624,7.296-3.325,14.795-11.285,19.116
			c-8.601,4.669-16.3,10.97-24.743,15.967c-7.319,4.332-15.278,7.568-22.688,11.759c-17.156,9.703-33.703,20.312-47.715,34.933
			c-9.899-8.3-19.519-16.367-28.928-24.256c15.009-23.077,30.444-43.873,55.633-55.156c-5.678,0.651-11.023,1.847-15.791,4.208
			c-4.683,2.319-8.78,5.821-13.895,9.325c6.908-25.133,9.85-49.422,8.221-74.057c-1.327-20.065-3.806-40.06,3.535-59.691
			c-1.358,1.325-2.458,2.73-2.74,4.283c-1.803,9.944-4.392,19.872-4.889,29.896c-0.81,16.334,0.264,32.756-0.399,49.103
			c-0.372,9.16-2.638,18.242-4.05,27.359c-13.998-22.428-22.292-45.888-23.819-72.121c-0.586,1.084-0.923,1.431-0.946,1.798
			c-0.111,1.764-0.235,3.536-0.177,5.3c0.65,19.891,4.974,38.949,13.601,56.894c4.401,9.154,8.768,18.47,3.634,28.313
			c-5.061,9.704-10.966,19.068-17.408,27.921c-5.898,8.104-10.548,7.458-16.136-0.869c-1.346-2.005-3.098-3.785-4.177-5.915
			c-6.145-12.122-13.542-23.845-17.858-36.602c-6.292-18.599-1.512-37.103,4.817-55.115c6.394-18.195,11.325-36.745,11.983-56.171
			c0.467-13.783-0.812-27.339-5.656-40.382c0.325,7.038,1.432,14.003,1.809,21.006c1.405,26.081-6.65,50.095-16.86,73.522
			c-0.739,1.695-4.006,3.366-5.957,3.216c-3.418-0.264-7.112-1.333-10.016-3.146c-13.08-8.164-22.972-19.587-30.975-32.569
			c-6.658-10.8-12.685-21.989-18.991-33.006c12.834,31.658,24.568,64.108,59.746,80.232c-0.369,2.637-0.745,5.883-1.288,9.101
			c-2.521,14.948-3.699,30.101,1.111,44.586c3.497,10.529,9.1,20.403,14.209,30.34c7.102,13.812,16.581,25.923,28.101,36.335
			c7.234,6.538,14.794,12.715,21.755,18.667c-10.629,15.544-20.926,30.601-30.183,44.138c-6.648-12.012-13.108-25.491-21.246-37.866
			c-7.733-11.758-17.279-22.393-31.56-26.717c-3.986-1.207-5.589-3.031-5.854-7.22c-1.073-16.999-4.949-33.325-15.228-47.232
			c-4.732-6.402-11.026-11.65-16.612-17.422c-0.385,0.418-0.769,0.837-1.154,1.255c12.408,13.894,21.362,29.6,23.844,48.312
			c2.365,17.825,4.635,17.789-14.704,21.688c-1.948,0.393-3.873,0.92-5.782,1.474c-15.571,4.514-30.954,3.065-45.324-3.641
			c-16.466-7.684-30.669-18.929-43.611-31.857c0.759,2.053,2.005,3.634,3.427,5.039c4.994,4.936,10.036,9.824,15.08,14.708
			c11.02,10.67,23.932,18.594,38.381,23.222c13.395,4.291,27.347,4.331,41.285,1.251c15.722-3.474,29.291-0.063,40.707,16.381
			c-8.863,7.905-18.042,16.371-27.536,24.467c-7.323,6.245-14.636,12.67-22.735,17.775c-5.027,3.169-11.514,4.023-18.594,6.321
			c7.618-22.963,1.31-39.224-8.905-45.725c-3.496,7.225-5.019,14.874-3.176,22.469c1.742,7.179,5.068,13.973,7.697,20.936
			c-0.223,0.408-0.447,0.815-0.67,1.223c-12.11-9.707-24.219-19.414-36.329-29.121c0.336,2.3,1.363,4.04,2.764,5.393
			c6.614,6.388,13.075,12.97,20.078,18.907c7.567,6.415,15.526,12.781,26.565,10.339c3.347-0.741,6.448-2.536,9.722-3.676
			c16.993-5.917,30.711-16.662,43.282-29.144c4.402-4.371,8.929-8.617,14.299-13.787c6.091,15.238,12.239,29.135,17.14,43.458
			c2.725,7.966,4.63,16.201,1.867,25.247c-8.388,27.456-8.881,55.416-1.763,83.204c3.592,14.022,8.714,27.652,13.285,41.896
			c-67.82,0-135.943,0-204.066,0c0-63.744,0-127.488,0-191.232c5.789-1.312,11.577-2.625,17.525-3.973
			C12.995,286.521,8.27,282.507-1.933,277.884z M156.287,252.511c-0.799,2.272-1.599,4.544-2.398,6.816
			c2.679,0.449,5.854,2.021,7.928,1.104c3.813-1.687,6.979-4.839,10.414-7.38c-0.441-0.994-0.882-1.989-1.322-2.983
			c-4.954,0.892-9.908,1.784-14.862,2.675c7.871-7.578,13.296-16.15,11.638-27.805c-11.352,1.801-19.087,15.184-16.503,28.326
			C152.874,253.014,154.582,252.762,156.287,252.511z M257.3,207.377c-2.28,1.232-4.838,1.766-5.17,2.933
			c-2.002,7.04,7.444,19.36,16.547,20.522c-1.147-5.397-2.206-10.38-3.259-15.336c16.17,4.351,18.388,4.184,25.655-1.923
			c-4.983-12.899-20.952-15.098-30.142-11.999C256.909,202.931,255.114,204.598,257.3,207.377z M93.477,180.645
			c1.485-16.031-21.007-40.66-32.668-34.2C60.665,163.426,76.096,180.472,93.477,180.645z M322.785,32.401
			c-12.634-7.986-35.29-3.734-40.058,13.444C296.555,53.962,315.332,48.371,322.785,32.401z M267.766,103.626
			c11.471-0.174,18.816-6.642,25.512-14.224c2.519-2.852,1.358-4.898-1.996-5.746c-10.101-2.556-20.148-3.416-28.506,4.347
			c-3.292,3.057-5.57,7.205-8.31,10.856C258.899,100.447,263.333,102.037,267.766,103.626z M249.894,70.154
			c6.296-17.273,0.326-36.885-13.16-43.235C229.244,38.31,235.151,63.233,249.894,70.154z M156.207,38.469
			c3.546,17.223,17.412,27.288,31.383,23.198C184.076,45.078,171.859,35.892,156.207,38.469z M114.704,88.86
			c-4.682-12.187-25.847-14.948-37.41-4.88C83.185,95.905,101.968,98.355,114.704,88.86z M67.618,206.259
			c-10.364,10.801-10.16,32.188,0.411,43.226C78.996,234.608,76.039,215.846,67.618,206.259z M122.167,191.432
			c10.274-12.687,10.046-33.35-0.209-42.414C112.338,158.863,112.282,178.638,122.167,191.432z M341.55,143.277
			c-8.53-11.15-25.089-13.278-36.423-1.508C315.225,154.236,330.046,154.85,341.55,143.277z M44.472,350.343
			c11.951,7.579,31.192-2.685,32.618-13.965C66.535,331.208,49.332,335.05,44.472,350.343z M27.633,182.486
			c-9.084,10.632-7.717,32.264,2.207,40.15C37.759,214.524,37.923,191.301,27.633,182.486z M315.328,71.272
			c-7.293,11.45-7.017,30.236,4.451,39.066C326.726,100.991,326.915,80.961,315.328,71.272z M205.145,164.324
			c-11.778,2.871-19.539,20.238-14.738,32.23C202.203,194.22,209.968,177.677,205.145,164.324z M124.664,13.273
			c-13.903,6.347-21.202,21.929-15.847,33.053C123.406,35.648,127.484,27.339,124.664,13.273z M97.339,49.471
			c-5.904-9.642-19.37-13.028-29.308-7.527c-3.802,2.105-3.196,4.029-0.462,6.53C75.486,55.72,88.256,56.195,97.339,49.471z
			 M24.345,286.181c1.736-15.119-5.649-28.308-16.435-29.906C5.525,270.745,12.232,283.247,24.345,286.181z M21.232,298.315
			c-13.704,8.082-18.851,17.007-16.787,29.112C17.024,325.036,24.859,311.449,21.232,298.315z M101.974,223.679
			c4.429,12.181,14.919,16.936,25.764,11.678C123.671,223.198,113.352,218.521,101.974,223.679z M96.561,111.16
			c12.761,0.631,21.195-6.773,20.217-17.323C105.65,93.305,99.307,98.615,96.561,111.16z M187.477,69.643
			c-8.556-8.332-18.417-7.19-24.479,2.835C172.1,79.919,176.095,79.828,187.477,69.643z M127.181,194.047
			c9.944,0.749,16.819-9.015,15.252-20.988C132.701,173.924,127.409,181.053,127.181,194.047z M143.461,110.205
			c7.147-10.004,7.025-22.624-0.014-28.955C136.839,89.203,136.707,101.209,143.461,110.205z M72.753,252.91
			c10.535-2.054,17.16-11.916,14.838-21.565C77.228,233.218,71.922,240.724,72.753,252.91z M317.489,204.478
			c-3.427-11.605-9.737-15.205-20.576-12.09C298.238,202.694,307.528,208.33,317.489,204.478z M324.987,165.36
			c10.228,1.447,17.925-4.886,18.834-15.496C332.86,149.56,326.148,155.082,324.987,165.36z M366.694,118.375
			c-9.653,3.993-13.488,14.811-8.843,23.705C365.818,138.492,369.081,130.005,366.694,118.375z M336.588,91.565
			c-9.367,2.58-14.271,12.074-11.478,21.436C334.446,109.804,338.108,103.141,336.588,91.565z M42.684,275.821
			c7.887,1.89,14.103,1.298,19.103-4.191c0.925-1.016,1.78-2.907,1.441-4.02c-0.295-0.969-2.256-1.78-3.596-2.024
			C51.61,264.128,47.092,268.854,42.684,275.821z"/>
		<path fill="none" d="M-1.933,489.036c68.123,0,136.246,0,204.066,0c-4.571-14.244-9.693-27.874-13.285-41.896
			c-7.118-27.788-6.625-55.748,1.763-83.204c2.764-9.046,0.859-17.281-1.867-25.247c-4.901-14.324-11.049-28.221-17.14-43.458
			c-5.37,5.17-9.896,9.416-14.299,13.787c-12.571,12.482-26.289,23.227-43.282,29.144c-3.274,1.14-6.375,2.935-9.722,3.676
			c-11.038,2.443-18.998-3.924-26.565-10.339c-7.003-5.938-13.465-12.52-20.078-18.907c-1.401-1.353-2.427-3.093-2.764-5.393
			c12.11,9.707,24.219,19.414,36.329,29.121c0.223-0.408,0.447-0.815,0.67-1.223c-2.629-6.963-5.955-13.758-7.697-20.936
			c-1.843-7.596-0.321-15.244,3.176-22.469c10.216,6.501,16.523,22.762,8.905,45.725c7.08-2.298,13.566-3.152,18.594-6.321
			c8.099-5.105,15.412-11.53,22.735-17.775c9.494-8.096,18.673-16.563,27.536-24.467c-11.416-16.444-24.985-19.856-40.707-16.381
			c-13.938,3.08-27.89,3.04-41.285-1.251c-14.449-4.629-27.36-12.552-38.381-23.222c-5.045-4.884-10.087-9.772-15.08-14.708
			c-1.421-1.405-2.668-2.987-3.427-5.039c12.942,12.928,27.145,24.174,43.611,31.857c14.37,6.706,29.753,8.155,45.324,3.641
			c1.91-0.554,3.835-1.081,5.782-1.474c19.339-3.898,17.069-3.862,14.704-21.688c-2.483-18.711-11.436-34.417-23.844-48.312
			c0.385-0.418,0.769-0.837,1.154-1.255c5.586,5.772,11.88,11.02,16.612,17.422c10.279,13.907,14.154,30.233,15.228,47.232
			c0.265,4.189,1.868,6.013,5.854,7.22c14.281,4.324,23.828,14.959,31.56,26.717c8.139,12.375,14.598,25.854,21.246,37.866
			c9.257-13.537,19.554-28.594,30.183-44.138c-6.961-5.952-14.521-12.129-21.755-18.667c-11.52-10.412-20.999-22.523-28.101-36.335
			c-5.109-9.937-10.713-19.811-14.209-30.34c-4.811-14.485-3.633-29.638-1.111-44.586c0.543-3.218,0.919-6.464,1.288-9.101
			c-35.179-16.124-46.912-48.573-59.746-80.232c6.306,11.017,12.333,22.206,18.991,33.006c8.003,12.982,17.895,24.405,30.975,32.569
			c2.904,1.812,6.597,2.882,10.016,3.146c1.95,0.151,5.218-1.521,5.957-3.216c10.21-23.428,18.265-47.441,16.86-73.522
			c-0.377-7.004-1.483-13.968-1.809-21.006c4.843,13.043,6.123,26.599,5.656,40.382c-0.658,19.426-5.589,37.977-11.983,56.171
			c-6.329,18.012-11.109,36.515-4.817,55.115c4.315,12.757,11.713,24.48,17.858,36.602c1.08,2.13,2.831,3.909,4.177,5.915
			c5.588,8.326,10.238,8.973,16.136,0.869c6.442-8.853,12.347-18.217,17.408-27.921c5.134-9.843,0.767-19.16-3.634-28.313
			c-8.628-17.945-12.951-37.004-13.601-56.894c-0.058-1.764,0.067-3.536,0.177-5.3c0.023-0.367,0.36-0.714,0.946-1.798
			c1.527,26.233,9.821,49.693,23.819,72.121c1.412-9.117,3.678-18.2,4.05-27.359c0.663-16.347-0.41-32.77,0.399-49.103
			c0.497-10.024,3.086-19.952,4.889-29.896c0.282-1.553,1.381-2.958,2.74-4.283c-7.341,19.631-4.862,39.626-3.535,59.691
			c1.629,24.635-1.313,48.924-8.221,74.057c5.115-3.504,9.212-7.006,13.895-9.325c4.768-2.361,10.113-3.557,15.791-4.208
			c-25.189,11.283-40.624,32.079-55.633,55.156c9.409,7.889,19.029,15.956,28.928,24.256c14.012-14.62,30.558-25.229,47.715-34.933
			c7.41-4.191,15.37-7.428,22.688-11.759c8.443-4.997,16.143-11.297,24.743-15.967c7.96-4.322,9.661-11.821,11.285-19.116
			c4.067-18.274,2.109-36.015-7.581-52.356c-2.326-3.922-5.824-7.149-8.215-11.009c23.387,18.603,23.495,44.029,21.354,71.52
			c4.871-4.831,10.28-9.236,14.515-14.573c13.563-17.093,21.648-36.465,16.536-58.373c-2.592-11.109-8.636-21.602-14.187-31.791
			c-11.576-21.246-24.487-41.783-35.555-63.277c-4.522-8.783-5.686-19.295-8.378-29.021c1.328,0,2.656,0,3.984,0
			c0.325,3.639-0.372,7.791,1.152,10.829c6.689,13.334,13.922,26.4,21.168,39.447c2.884,5.193,6.31,10.085,9.49,15.114
			c1.367-13.039,0.91-25.557,7.392-37.965c-2.986,20.942-6.143,40.592,5.65,59.126c7.109,11.172,13.23,22.973,20.071,34.975
			c7.566-14.032,15.711-27.671,28.588-37.277c13.795-10.291,31.206-5.805,46.984-10.106c-1.898-3.788-3.641-7.269-5.598-11.176
			c-3.288,2.442-6.264,4.652-9.24,6.863c-0.669-0.206-1.338-0.411-2.006-0.617c0-4.98,0.19-9.97-0.073-14.936
			c-0.152-2.873-0.065-6.602-1.741-8.413c-10.124-10.933-19.822-22.6-36.717-23.338c-4.878-0.213-9.728-2.456-14.439-4.182
			c-1.363-0.499-2.154-2.478-3.288-3.704c-1.234-1.335-2.383-3.422-3.876-3.74c-15.026-3.2-30.101-6.182-45.196-9.046
			c-4.726-0.897-9.554-1.251-14.336-1.853c52.677,0,105.355,0,158.032,0c0,163.344,0,326.688,0,490.032
			c-164.451,0-328.901,0.005-493.352-0.055C2.051,490.308,0.059,489.479-1.933,489.036z M419.383,221.648
			c-20.219,3.45-40.093,6.868-59.976,10.226c-16.026,2.707-32.461,4.146-46.312,13.92c-7.868,5.552-15.465,11.485-23.199,17.227
			c-13.005,9.655-24.224,21.195-32.714,34.866c-16.542,26.638-26.53,55.695-28.585,87.135c-0.66,10.103-0.103,20.285-0.103,30.43
			c2.794-1.141,4.038-2.373,4.944-3.817c13.558-21.637,32.309-37.213,55.321-47.996c5.118-2.398,10.227-5.186,14.603-8.709
			c6.623-5.331,9.46-12.782,9.714-21.25c-19.931-3.165-28.529-18.117-27.594-31.034c15.735-0.212,21.184,11.496,27.605,24.56
			c-1.015-12.381-8.889-22.301-4.732-31.609c1.765,6.48,3.393,14.63,6.232,22.333c3.618,9.819,4.453,19.257-0.137,28.891
			c-1.096,2.3-1.867,4.755-2.216,5.66c14.468,1.241,28.984,1.836,43.296,3.87c20.062,2.852,36.853-2.119,50.59-17.322
			c2.927-3.239,7.021-5.423,10.777-8.243c-6.74,7.158-12.536,14.787-19.779,20.618c-8.34,6.715-17.823,12.195-29.325,11.8
			c-5.303-0.182-10.735,0.286-15.887-0.699c-32.129-6.147-58.216,6.353-81.973,26.127c-3.176,2.643-5.679,6.094-9.483,10.253
			c18.3-1.73,31.691,5.115,42.664,16.875c7.438,7.972,14.07,16.696,21.062,25.084c-11.104-9.481-21.851-19.151-32.297-29.135
			c-9.969-9.529-29.194-7.988-38.22-4.267c-0.968,0.399-1.978,1.199-2.505,2.088c-4.036,6.806-8.549,13.417-11.745,20.608
			c-3.067,6.9-6.912,14.015-3.786,22.206c4.162,10.906,7.884,21.989,12.43,32.728c0.824,1.947,4.683,3.665,7.162,3.694
			c23.457,0.273,46.92,0.348,70.377,0.102c24.716-0.259,49.227-1.577,73.364-8.364c14.357-4.037,28.106-9,40.771-16.587
			c12.776-7.654,22.705-18.606,30.007-31.48c14.678-25.876,20.762-54.464,23.198-83.649c5.402-64.715,3.898-129.565,1.392-194.352
			c-0.907-23.454-5.884-46.433-13.589-68.726c-1.429-4.135-3.37-6.176-8.139-5.388c-3.882,0.641-8.028-0.283-11.897,0.398
			c-7.758,1.366-16.188,1.87-22.922,5.419c-11.238,5.922-19.111,16.069-24.725,27.483c-5.797,11.788-12.249,23.184-12.803,37.155
			c-0.321,8.098-3.496,16.389-6.762,24.002c-7.27,16.946-20.102,29.578-34.242,40.944c-4.55,3.657-9.245,7.133-12.838,9.895
			C370.079,224.329,394.715,222.989,419.383,221.648z"/>
		<path fill="#F7941E" d="M339.363,0.332c4.782,0.603,9.61,0.957,14.336,1.853c15.095,2.864,30.169,5.846,45.196,9.046
			c1.493,0.318,2.642,2.405,3.876,3.74c1.134,1.226,1.925,3.205,3.288,3.704c4.711,1.726,9.562,3.97,14.439,4.182
			c16.896,0.738,26.593,12.405,36.717,23.338c1.677,1.81,1.59,5.54,1.741,8.413c0.262,4.966,0.073,9.956,0.073,14.936
			c0.669,0.206,1.338,0.411,2.006,0.617c2.976-2.211,5.953-4.421,9.24-6.863c1.957,3.907,3.701,7.387,5.598,11.176
			c-15.778,4.301-33.189-0.185-46.984,10.106c-12.877,9.606-21.023,23.245-28.588,37.277c-6.841-12.003-12.963-23.803-20.071-34.975
			c-11.793-18.534-8.636-38.184-5.65-59.126c-6.482,12.408-6.025,24.926-7.392,37.965c-3.18-5.029-6.606-9.921-9.49-15.114
			c-7.245-13.047-14.479-26.113-21.168-39.447c-1.524-3.038-0.827-7.19-1.152-10.829C336.707,0.332,338.035,0.332,339.363,0.332z
			 M454.043,70.499c5.479-10.253,2.278-29.054-7.181-31.068C441.458,47.557,444.032,64.765,454.043,70.499z M378.195,53.495
			c7.414,6.859,15.961,4.67,21.896-5.277C391.807,43.005,385.919,44.337,378.195,53.495z"/>
		<path fill="#FFFFFF" d="M97.667,0.332c6.886,12.519,6.93,25.393,2.225,39.172C86.002,29.641,80.987,16.095,80.403,0.332
			C86.158,0.332,91.912,0.332,97.667,0.332z"/>
		<path fill="#FFFFFF" d="M-1.933,166.332c10.441,11.904,14.371,25.408,10.854,39.153c-3.743-2.053-7.299-4.003-10.854-5.953
			C-1.933,188.466-1.933,177.399-1.933,166.332z"/>
		<path fill="#FFFFFF" d="M-1.933,220.78c5.262,1.27,10.727,2.032,15.703,4.018c2.624,1.048,4.396,4.232,6.785,6.691
			c-7.837,5.281-15.104,4.55-22.488,2.571C-1.933,229.634-1.933,225.207-1.933,220.78z"/>
		<path fill="#FFFFFF" d="M-1.933,277.884c10.203,4.623,14.928,8.637,17.525,15.947c-5.948,1.349-11.736,2.661-17.525,3.973
			C-1.933,291.164-1.933,284.524-1.933,277.884z"/>
		<path fill="#FFFFFF" d="M180.003,0.332c0,2.349,0,4.698,0,7.395c-6.227,0.485-8.765-3.985-11.952-7.395
			C172.035,0.332,176.019,0.332,180.003,0.332z"/>
		<path fill="#FFFFFF" d="M257.3,207.377c-2.186-2.779-0.391-4.446,3.632-5.803c9.19-3.099,25.159-0.9,30.142,11.999
			c-7.267,6.108-9.485,6.274-25.655,1.923c1.053,4.956,2.112,9.938,3.259,15.336c-9.103-1.162-18.549-13.482-16.547-20.522
			C252.462,209.143,255.02,208.609,257.3,207.377z"/>
		<path fill="#FFFFFF" d="M93.477,180.645c-17.382-0.173-32.813-17.219-32.668-34.2C72.471,139.985,94.963,164.614,93.477,180.645z"
			/>
		<path fill="#FFFFFF" d="M322.785,32.401c-7.454,15.97-26.23,21.561-40.058,13.444C287.495,28.667,310.152,24.415,322.785,32.401z"
			/>
		<path fill="#FFFFFF" d="M267.766,103.626c-4.434-1.589-8.867-3.178-13.301-4.767c2.74-3.651,5.019-7.799,8.31-10.856
			c8.359-7.763,18.406-6.903,28.506-4.347c3.354,0.849,4.515,2.894,1.996,5.746C286.583,96.983,279.238,103.452,267.766,103.626z"/>
		<path fill="#FFFFFF" d="M249.894,70.154c-14.744-6.92-20.65-31.844-13.16-43.235C250.221,33.269,256.19,52.881,249.894,70.154z"/>
		<path fill="#FFFFFF" d="M156.207,38.469c15.653-2.577,27.869,6.609,31.383,23.198C173.619,65.757,159.752,55.692,156.207,38.469z"
			/>
		<path fill="#FFFFFF" d="M114.704,88.86c-12.735,9.494-31.519,7.044-37.41-4.88C88.856,73.912,110.021,76.673,114.704,88.86z"/>
		<path fill="#FFFFFF" d="M67.618,206.259c8.421,9.587,11.378,28.35,0.411,43.226C57.458,238.447,57.255,217.06,67.618,206.259z"/>
		<path fill="#FFFFFF" d="M122.167,191.432c-9.885-12.794-9.829-32.57-0.209-42.414
			C132.213,158.082,132.441,178.745,122.167,191.432z"/>
		<path fill="#FFFFFF" d="M341.55,143.277c-11.504,11.573-26.326,10.959-36.423-1.508
			C316.462,129.999,333.02,132.128,341.55,143.277z"/>
		<path fill="#FFFFFF" d="M44.472,350.343c4.86-15.293,22.063-19.135,32.618-13.965C75.664,347.658,56.423,357.922,44.472,350.343z"
			/>
		<path fill="#FFFFFF" d="M27.633,182.486c10.29,8.816,10.126,32.038,2.207,40.15C19.916,214.75,18.549,193.118,27.633,182.486z"/>
		<path fill="#FFFFFF" d="M315.328,71.272c11.587,9.689,11.397,29.719,4.451,39.066C308.312,101.508,308.036,82.722,315.328,71.272z
			"/>
		<path fill="#FFFFFF" d="M205.145,164.324c4.822,13.353-2.942,29.896-14.738,32.23
			C185.606,184.562,193.367,167.194,205.145,164.324z"/>
		<path fill="#FFFFFF" d="M124.664,13.273c2.82,14.065-1.258,22.375-15.847,33.053C103.462,35.202,110.762,19.621,124.664,13.273z"
			/>
		<path fill="#FFFFFF" d="M97.339,49.471c-9.083,6.724-21.853,6.249-29.77-0.997c-2.734-2.502-3.34-4.426,0.462-6.53
			C77.968,36.443,91.435,39.829,97.339,49.471z"/>
		<path fill="#FFFFFF" d="M24.345,286.181c-12.113-2.934-18.82-15.436-16.435-29.906C18.696,257.873,26.081,271.062,24.345,286.181z
			"/>
		<path fill="#FFFFFF" d="M21.232,298.315c3.627,13.135-4.207,26.722-16.787,29.112C2.381,315.321,7.527,306.397,21.232,298.315z"/>
		<path fill="#FFFFFF" d="M156.29,252.51c-1.708,0.252-3.416,0.504-5.108,0.754c-2.584-13.142,5.15-26.525,16.503-28.326
			c1.658,11.655-3.768,20.227-11.638,27.805L156.29,252.51z"/>
		<path fill="#FFFFFF" d="M101.974,223.679c11.379-5.158,21.697-0.481,25.764,11.678
			C116.892,240.616,106.402,235.861,101.974,223.679z"/>
		<path fill="#FFFFFF" d="M96.561,111.16c2.746-12.545,9.088-17.855,20.217-17.323C117.756,104.387,109.322,111.791,96.561,111.16z"
			/>
		<path fill="#FFFFFF" d="M187.477,69.643c-11.382,10.184-15.377,10.276-24.479,2.835C169.06,62.453,178.921,61.311,187.477,69.643z
			"/>
		<path fill="#FFFFFF" d="M127.181,194.047c0.228-12.993,5.52-20.123,15.252-20.988
			C143.999,185.032,137.125,194.796,127.181,194.047z"/>
		<path fill="#FFFFFF" d="M143.461,110.205c-6.754-8.996-6.622-21.003-0.014-28.955C150.486,87.581,150.608,100.202,143.461,110.205
			z"/>
		<path fill="#FFFFFF" d="M72.753,252.91c-0.831-12.186,4.475-19.692,14.838-21.565C89.913,240.994,83.288,250.856,72.753,252.91z"
			/>
		<path fill="#FFFFFF" d="M317.489,204.478c-9.962,3.852-19.251-1.784-20.576-12.09
			C307.752,189.273,314.063,192.874,317.489,204.478z"/>
		<path fill="#FFFFFF" d="M324.987,165.36c1.161-10.277,7.873-15.799,18.834-15.496C342.912,160.474,335.215,166.807,324.987,165.36
			z"/>
		<path fill="#FFFFFF" d="M366.694,118.375c2.387,11.629-0.875,20.117-8.843,23.705C353.206,133.186,357.04,122.368,366.694,118.375
			z"/>
		<path fill="#FFFFFF" d="M336.588,91.565c1.52,11.576-2.142,18.239-11.478,21.436C322.318,103.64,327.221,94.146,336.588,91.565z"
			/>
		<path fill="#FFFFFF" d="M42.684,275.821c4.409-6.967,8.926-11.693,16.947-10.235c1.34,0.244,3.301,1.055,3.596,2.024
			c0.339,1.113-0.515,3.004-1.441,4.02C56.787,277.119,50.571,277.711,42.684,275.821z"/>
		<path fill="#FFFFFF" d="M156.046,252.743c4.954-0.892,9.908-1.784,14.862-2.675c0.441,0.994,0.882,1.989,1.322,2.983
			c-3.436,2.541-6.601,5.693-10.414,7.38c-2.074,0.917-5.249-0.655-7.928-1.104c0.799-2.272,1.599-4.544,2.4-6.816
			C156.29,252.51,156.046,252.743,156.046,252.743z"/>
		<path fill="#F7941E" d="M419.383,221.648c-24.668,1.341-49.304,2.681-72.978,3.968c3.593-2.763,8.288-6.238,12.838-9.895
			c14.14-11.365,26.972-23.998,34.242-40.944c3.266-7.614,6.441-15.904,6.762-24.002c0.555-13.971,7.006-25.367,12.803-37.155
			c5.613-11.414,13.487-21.56,24.725-27.483c6.735-3.549,15.165-4.053,22.922-5.419c3.869-0.681,8.015,0.243,11.897-0.398
			c4.769-0.788,6.709,1.253,8.139,5.388c7.705,22.294,12.682,45.272,13.589,68.726c2.505,64.788,4.01,129.638-1.392,194.352
			c-2.436,29.185-8.52,57.773-23.198,83.649c-7.303,12.874-17.232,23.826-30.007,31.48c-12.665,7.588-26.414,12.55-40.771,16.587
			c-24.137,6.787-48.648,8.105-73.364,8.364c-23.457,0.246-46.92,0.171-70.377-0.102c-2.479-0.029-6.338-1.746-7.162-3.694
			c-4.546-10.739-8.268-21.822-12.43-32.728c-3.126-8.192,0.719-15.306,3.786-22.206c3.197-7.191,7.709-13.802,11.745-20.608
			c0.527-0.889,1.537-1.689,2.505-2.088c9.026-3.72,28.252-5.261,38.22,4.267c10.446,9.985,21.193,19.655,32.297,29.135
			c-6.992-8.388-13.624-17.112-21.062-25.084c-10.972-11.759-24.364-18.605-42.664-16.875c3.804-4.158,6.307-7.609,9.483-10.253
			c23.757-19.773,49.843-32.273,81.973-26.127c5.152,0.986,10.584,0.517,15.887,0.699c11.502,0.395,20.985-5.085,29.325-11.8
			c7.243-5.831,13.038-13.46,19.779-20.618c-3.757,2.82-7.851,5.004-10.777,8.243c-13.737,15.204-30.528,20.174-50.59,17.322
			c-14.312-2.035-28.828-2.629-43.296-3.87c0.349-0.905,1.12-3.36,2.216-5.66c4.59-9.634,3.756-19.072,0.137-28.891
			c-2.839-7.703-4.466-15.852-6.232-22.333c-4.157,9.308,3.717,19.228,4.732,31.609c-6.421-13.063-11.87-24.772-27.605-24.56
			c-0.935,12.917,7.663,27.87,27.594,31.034c-0.254,8.468-3.091,15.918-9.714,21.25c-4.377,3.523-9.486,6.31-14.603,8.709
			c-23.011,10.783-41.763,26.359-55.321,47.996c-0.905,1.444-2.15,2.676-4.944,3.817c0-10.146-0.557-20.328,0.103-30.43
			c2.055-31.44,12.043-60.498,28.585-87.135c8.49-13.672,19.709-25.211,32.714-34.866c7.734-5.742,15.331-11.675,23.199-17.227
			c13.851-9.774,30.286-11.213,46.312-13.92C379.291,228.516,399.164,225.098,419.383,221.648z M468.947,160.687
			c-18.905,1.388-33.302,28.896-28.494,44.289C455.905,206.39,472.215,178.206,468.947,160.687z M383.447,366.893
			c-0.736,12.108,4.647,19.643,14.517,19.695c-0.698-4.071-1.38-8.045-2.152-12.543c8.682,0.586,17.349,3.488,24.964-2.372
			c-2.957-7.224-12.262-13.915-20.125-13.824c-5.972,0.069-12.922-0.215-13.64,9.044
			C386.38,366.893,384.906,366.893,383.447,366.893z M476.855,281.762c-14.914-3.938-32.452,13.941-30.404,26.041
			C461.614,309.366,473.485,299.346,476.855,281.762z M323.065,427.634c13.293,7.492,30.87,1.701,34.682-11.063
			C343.328,410.293,331.943,413.827,323.065,427.634z M394.836,468.496c-5.151-15.067-19.58-23.257-30.282-17.189
			C368.055,465.227,381.107,472.635,394.836,468.496z M292.702,449.101c6.066-12.017,0.947-29.399-10.162-34.508
			C276.295,425.785,281.538,443.59,292.702,449.101z M472.418,214.341c-10.981-8.878-19.471-8.977-29.727-0.772
			c-3.604,2.884-3.592,5.076,0.602,7.357C452.909,226.155,464.468,223.728,472.418,214.341z M431.248,209.78
			c4.403-12.137-3.538-30.762-15.913-33.433C413.277,190.896,417.531,202.36,431.248,209.78z M410.713,256.271
			c-4.631-15.37-15.602-23.536-25.566-19.41C387.53,251.103,399.369,259.606,410.713,256.271z M357.566,347.951
			c11.548,0.397,19.268-5.21,22.262-15.759c0.477-1.68,0.58-4.419-0.389-5.304c-1.1-1.004-3.784-1.05-5.463-0.516
			C363.72,329.632,359.734,337.807,357.566,347.951z M325.845,275.53c8.279,4.296,19.8,3.23,25.546-2.494
			c1.569-1.563,2.211-4.057,3.278-6.124c-2.235-1.132-4.436-3.157-6.71-3.241C338.654,263.328,330.747,266.262,325.845,275.53z
			 M432.898,280.345c-5.585,10.32-3.358,21.643,5.179,27.621C443.698,298.772,441.612,286.768,432.898,280.345z M468.488,323.894
			c-4.834-9.722-15.106-12.524-24.593-6.708C448.124,326.897,458.291,329.671,468.488,323.894z M285.958,335.513
			c9.215,10.078,20.698,10.901,24.548,2.078C301.328,330.075,294.059,329.367,285.958,335.513z M409.421,131.119
			c9.641,5.045,20.236,1.135,21.312-7.56C421.109,119.777,415.623,121.626,409.421,131.119z M369.042,477.842
			c2.564-11.378-0.767-19.355-9.238-22.9C356.751,464.543,360.246,473.599,369.042,477.842z"/>
		<path fill="#FFFFFF" d="M454.043,70.499c-10.011-5.734-12.585-22.942-7.181-31.068C456.322,41.445,459.522,60.246,454.043,70.499z
			"/>
		<path fill="#FFFFFF" d="M378.195,53.495c7.724-9.158,13.612-10.491,21.896-5.277C394.156,58.165,385.609,60.354,378.195,53.495z"
			/>
		<path fill="#FFFFFF" d="M468.947,160.687c3.268,17.52-13.042,45.704-28.494,44.289
			C435.644,189.583,450.042,162.075,468.947,160.687z"/>
		<path fill="#FFFFFF" d="M383.447,366.893c1.46,0,2.934,0,3.564,0c0.717-9.259,7.668-8.975,13.64-9.044
			c7.862-0.091,17.168,6.601,20.125,13.824c-7.615,5.861-16.282,2.959-24.964,2.372c0.772,4.498,1.453,8.471,2.152,12.543
			C388.093,386.537,382.71,379.002,383.447,366.893z"/>
		<path fill="#FFFFFF" d="M476.855,281.762c-3.37,17.584-15.241,27.605-30.404,26.041
			C444.403,295.702,461.941,277.824,476.855,281.762z"/>
		<path fill="#FFFFFF" d="M323.065,427.634c8.879-13.808,20.263-17.341,34.682-11.063
			C353.935,429.336,336.358,435.127,323.065,427.634z"/>
		<path fill="#FFFFFF" d="M394.836,468.496c-13.729,4.14-26.781-3.269-30.282-17.189
			C375.257,445.239,389.685,453.428,394.836,468.496z"/>
		<path fill="#FFFFFF" d="M292.702,449.101c-11.164-5.511-16.408-23.316-10.162-34.508
			C293.649,419.702,298.768,437.084,292.702,449.101z"/>
		<path fill="#FFFFFF" d="M472.418,214.341c-7.95,9.388-19.509,11.815-29.125,6.585c-4.194-2.281-4.207-4.473-0.602-7.357
			C452.947,205.364,461.437,205.463,472.418,214.341z"/>
		<path fill="#FFFFFF" d="M431.248,209.78c-13.717-7.42-17.972-18.884-15.913-33.433C427.71,179.019,435.651,197.644,431.248,209.78
			z"/>
		<path fill="#FFFFFF" d="M410.713,256.271c-11.345,3.336-23.183-5.168-25.566-19.41
			C395.112,232.734,406.082,240.901,410.713,256.271z"/>
		<path fill="#FFFFFF" d="M357.566,347.951c2.167-10.144,6.154-18.319,16.411-21.579c1.679-0.534,4.363-0.488,5.463,0.516
			c0.969,0.885,0.866,3.624,0.389,5.304C376.834,342.74,369.115,348.348,357.566,347.951z"/>
		<path fill="#FFFFFF" d="M325.845,275.53c4.902-9.269,12.809-12.202,22.114-11.858c2.273,0.084,4.475,2.108,6.71,3.241
			c-1.067,2.067-1.709,4.561-3.278,6.124C345.645,278.76,334.124,279.826,325.845,275.53z"/>
		<path fill="#FFFFFF" d="M432.898,280.345c8.714,6.423,10.8,18.427,5.179,27.621C429.54,301.988,427.313,290.665,432.898,280.345z"
			/>
		<path fill="#FFFFFF" d="M468.488,323.894c-10.197,5.776-20.364,3.003-24.593-6.708
			C453.382,311.371,463.654,314.173,468.488,323.894z"/>
		<path fill="#FFFFFF" d="M285.958,335.513c8.101-6.146,15.37-5.438,24.548,2.078C306.655,346.414,295.172,345.591,285.958,335.513z
			"/>
		<path fill="#FFFFFF" d="M409.421,131.119c6.202-9.493,11.688-11.342,21.312-7.56C429.657,132.254,419.063,136.164,409.421,131.119
			z"/>
		<path fill="#FFFFFF" d="M369.042,477.842c-8.796-4.242-12.29-13.298-9.238-22.9C368.275,458.487,371.606,466.464,369.042,477.842z
			"/>
	</g>
</g>
</svg>
