<?xml version="1.0" standalone="no"?>
<!DOCTYPE svg PUBLIC "-//W3C//DTD SVG 20010904//EN"
 "http://www.w3.org/TR/2001/REC-SVG-20010904/DTD/svg10.dtd">
<svg version="1.0" xmlns="http://www.w3.org/2000/svg"
 width="700.000000pt" height="700.000000pt" viewBox="0 0 700.000000 700.000000"
 preserveAspectRatio="xMidYMid meet">
<metadata>
Created by potrace 1.11, written by Peter Selinger 2001-2013
</metadata>
<g transform="translate(0.000000,700.000000) scale(0.100000,-0.100000)"
fill="#000000" stroke="none">
<path d="M300 5335 l0 -955 40 -52 c69 -91 107 -223 95 -330 -4 -32 -10 -58
-13 -58 -4 0 -29 14 -57 30 -27 16 -53 30 -57 30 -5 0 -8 -54 -8 -120 l0 -119
43 -11 c127 -33 150 -43 178 -73 16 -17 29 -34 29 -38 0 -3 -19 -14 -42 -25
-42 -19 -127 -24 -181 -10 l-27 6 0 -252 0 -253 53 -28 c58 -30 117 -86 134
-128 11 -25 10 -26 -51 -38 -33 -7 -78 -17 -98 -22 l-38 -10 0 -1094 0 -1095
1169 0 1170 0 -60 178 c-169 503 -190 790 -88 1202 49 194 45 213 -113 613
l-90 227 -136 -129 c-219 -206 -327 -282 -514 -358 -219 -90 -285 -67 -561
199 -64 62 -117 119 -117 127 0 8 16 0 43 -21 244 -198 362 -288 365 -279 2 6
-11 48 -29 93 -63 163 -72 231 -43 329 22 75 28 79 68 40 82 -80 114 -231 82
-390 -9 -46 -15 -85 -12 -88 8 -9 131 30 188 60 32 16 104 67 160 112 118 95
421 363 427 377 6 17 -134 145 -184 168 -67 31 -191 37 -310 16 -169 -30 -351
-17 -485 36 -176 69 -286 145 -458 315 -141 140 -142 144 -9 29 158 -135 358
-250 501 -286 126 -32 230 -27 424 19 96 23 170 46 182 56 25 22 26 73 5 203
-28 172 -87 308 -197 453 -38 49 -68 95 -68 101 0 19 146 -129 195 -197 91
-127 142 -271 165 -463 7 -53 16 -105 21 -114 5 -9 55 -39 112 -66 164 -80
262 -192 421 -483 44 -79 90 -163 103 -187 l25 -43 50 73 c28 40 106 154 173
253 l123 180 -135 115 c-229 194 -323 309 -451 546 -179 333 -210 485 -163
802 l18 124 -21 12 c-12 7 -43 26 -71 41 -156 87 -297 245 -410 457 -54 103
-148 318 -142 325 2 2 37 -54 77 -124 112 -197 170 -281 256 -372 126 -134
228 -201 307 -201 29 0 49 6 59 18 25 27 105 232 142 360 55 190 70 309 63
507 -6 183 2 192 28 31 40 -248 6 -516 -115 -891 -80 -246 -93 -320 -88 -464
6 -140 21 -189 119 -384 91 -182 139 -263 187 -314 46 -51 84 -57 124 -20 34
32 156 214 213 320 46 85 47 89 43 160 -3 60 -13 94 -60 203 -70 164 -104 270
-128 399 -20 113 -36 332 -21 300 5 -11 10 -34 10 -52 2 -57 40 -237 72 -334
41 -126 180 -411 194 -397 2 2 13 57 24 123 15 97 20 185 24 455 4 256 9 359
23 438 9 56 19 101 20 99 2 -2 0 -46 -5 -98 -6 -58 -5 -167 1 -284 20 -370 1
-652 -61 -905 -12 -47 -21 -88 -21 -92 0 -4 36 17 81 47 78 52 136 77 209 89
31 5 29 2 -25 -27 -175 -95 -318 -235 -482 -473 -38 -55 -72 -105 -76 -111 -4
-7 56 -64 153 -145 88 -73 165 -134 170 -136 5 -2 40 26 78 61 137 129 309
243 576 384 87 47 204 115 260 152 55 37 128 84 162 104 60 36 98 80 122 142
42 108 55 329 26 458 -20 90 -72 204 -126 276 l-41 56 42 -40 c60 -56 96 -112
132 -202 47 -116 62 -221 57 -399 l-4 -152 37 30 c20 16 63 59 94 94 184 209
269 442 235 646 -26 152 -67 239 -343 723 -235 412 -261 466 -300 625 l-33
135 -865 0 -864 0 -3 -42 c-3 -37 -6 -43 -26 -43 -14 0 -45 19 -74 45 l-50 45
-397 0 c-374 0 -397 -1 -390 -17 57 -135 68 -234 41 -357 -10 -42 -21 -76 -26
-76 -4 0 -36 30 -70 67 -88 94 -132 200 -142 343 l-3 35 -472 3 -473 2 0 -955z
m1454 685 c-9 -73 -49 -144 -116 -205 -38 -34 -65 -52 -71 -46 -18 18 -19 97
-3 152 21 70 71 137 132 178 l49 32 8 -33 c4 -18 5 -53 1 -78z m1337 -89 c90
-79 134 -226 108 -361 -8 -40 -19 -75 -26 -77 -22 -8 -104 86 -135 155 -39 84
-50 223 -25 285 9 20 20 37 25 37 5 0 29 -18 53 -39z m881 2 c21 -8 38 -19 38
-23 0 -14 -57 -86 -91 -114 -60 -51 -115 -69 -204 -69 -72 0 -155 21 -155 39
0 19 45 86 76 114 86 75 226 97 336 53z m-1683 -114 c79 -34 130 -96 166 -200
l14 -37 -40 -7 c-81 -14 -180 30 -241 106 -40 50 -81 151 -65 162 19 12 115
-1 166 -24z m-964 -8 c42 -19 105 -72 105 -89 0 -5 -22 -19 -49 -31 -54 -23
-133 -28 -190 -11 -42 12 -107 56 -116 78 -22 57 158 95 250 53z m1085 -284
c24 -13 45 -28 47 -34 6 -18 -94 -85 -137 -90 -30 -4 -49 0 -85 21 -49 29 -50
40 -3 83 51 48 113 55 178 20z m817 -103 c-6 -20 -13 -32 -14 -27 -4 11 14 63
21 63 2 0 -1 -16 -7 -36z m736 6 c66 -78 87 -235 46 -345 -11 -30 -24 -55 -28
-55 -13 0 -48 44 -73 90 -20 38 -23 60 -23 145 0 73 5 113 18 148 10 26 22 47
27 47 4 0 20 -13 33 -30z m-2452 -58 c52 -19 91 -48 107 -79 7 -12 12 -24 12
-26 0 -2 -28 -17 -61 -32 -113 -50 -243 -34 -318 42 l-45 44 33 21 c78 50 187
62 272 30z m1696 -24 c-3 -7 -5 -2 -5 12 0 14 2 19 5 13 2 -7 2 -19 0 -25z
m-1206 -52 c32 -70 20 -183 -25 -247 -14 -21 -15 -20 -36 22 -40 77 -37 188 7
257 17 28 30 21 54 -32z m1606 39 c102 -13 106 -43 16 -125 -64 -58 -111 -85
-179 -100 -41 -9 -56 -8 -125 15 -44 15 -79 30 -79 34 0 12 94 123 122 144 35
26 114 47 158 42 19 -2 58 -7 87 -10z m563 -160 c0 -69 -27 -125 -73 -154 -51
-31 -57 -28 -57 34 0 67 17 103 67 144 54 45 63 41 63 -24z m-2510 13 c0 -13
-9 -42 -19 -65 -26 -57 -86 -95 -156 -101 l-54 -4 8 29 c29 99 99 160 189 162
27 1 32 -3 32 -21z m2838 -445 c-28 -54 -73 -86 -88 -63 -5 8 -10 40 -10 70 0
67 29 123 80 158 l35 23 3 -72 c2 -60 -1 -80 -20 -116z m-371 -17 c18 -9 48
-30 68 -47 l35 -31 -28 -22 c-70 -57 -147 -80 -221 -66 -44 8 -117 47 -145 79
-19 21 -19 21 0 42 20 22 62 46 104 60 39 13 151 4 187 -15z m-2974 -134 c113
-65 222 -217 235 -327 l5 -46 -39 7 c-167 30 -289 151 -324 318 -10 48 -10 60
2 67 25 16 73 9 121 -19z m591 -41 c9 -10 26 -43 37 -72 39 -102 23 -248 -38
-347 l-21 -33 -19 28 c-42 59 -58 123 -58 228 0 86 3 106 24 145 40 77 47 82
75 51z m2506 -3 c0 -34 -41 -100 -77 -124 -34 -23 -111 -40 -124 -27 -12 13
18 84 49 115 29 30 90 57 130 58 16 0 22 -6 22 -22z m-1576 -164 c3 -9 6 -46
6 -83 0 -57 -5 -78 -32 -131 -32 -63 -81 -112 -125 -125 -19 -5 -23 -1 -29 30
-10 56 0 137 24 187 33 67 102 133 143 137 4 1 10 -6 13 -15z m-724 -131 c0
-90 -58 -167 -135 -180 -32 -5 -35 -4 -35 19 0 38 28 123 50 150 21 27 75 57
103 58 14 0 17 -9 17 -47z m-1260 -138 c32 -64 35 -75 35 -164 0 -86 -3 -102
-29 -155 l-29 -60 -28 34 c-43 52 -63 122 -63 220 0 72 5 94 28 143 15 32 33
57 39 55 7 -2 28 -35 47 -73z m3180 -42 c34 -20 87 -110 73 -124 -13 -13 -92
-13 -123 -1 -49 20 -114 115 -92 136 13 13 115 5 142 -11z m-340 -107 c44 -23
88 -63 106 -98 14 -26 13 -28 -23 -53 -45 -30 -96 -32 -185 -9 -33 8 -62 13
-65 10 -3 -2 3 -39 12 -81 10 -42 15 -78 13 -81 -11 -10 -65 19 -101 54 -48
46 -77 101 -77 145 0 29 5 37 29 47 20 8 27 17 24 29 -5 20 14 39 54 51 45 15
173 6 213 -14z m-2374 -149 c14 -38 19 -77 18 -147 0 -86 -3 -101 -33 -162
-17 -38 -35 -68 -39 -68 -12 0 -53 67 -67 108 -37 107 -27 227 27 322 l31 54
21 -27 c12 -15 31 -51 42 -80z m502 -82 c47 -20 79 -50 104 -99 23 -45 18 -52
-49 -62 -78 -11 -163 37 -203 117 l-19 37 37 10 c55 15 88 14 130 -3z m580
-93 c-4 -49 -13 -83 -32 -118 -37 -68 -91 -124 -126 -131 l-30 -5 0 55 c0 108
63 217 144 253 17 7 35 13 40 14 5 0 6 -31 4 -68z m-911 -64 c-8 -65 -47 -124
-102 -155 -57 -32 -65 -30 -65 17 0 93 76 190 149 190 23 0 24 -2 18 -52z
m958 -178 c0 -26 -96 -90 -135 -90 -56 0 -67 12 -49 52 14 29 23 34 75 44 75
15 109 13 109 -6z m-1785 -89 c55 -44 92 -126 98 -216 5 -84 3 -86 -59 -55
-75 39 -129 146 -129 258 0 54 0 54 28 47 15 -3 43 -19 62 -34z m521 -71 c10
-6 19 -19 19 -28 0 -26 -48 -67 -93 -82 -39 -12 -127 -6 -127 9 0 15 65 81 95
96 35 17 78 19 106 5z m-466 -537 c-9 -23 -26 -54 -37 -68 -32 -41 -98 -85
-126 -85 -24 0 -25 1 -19 60 7 85 48 153 128 214 l64 49 3 -64 c2 -41 -3 -78
-13 -106z m608 -254 c20 -5 37 -15 37 -22 0 -17 -38 -77 -63 -99 -34 -29 -117
-67 -165 -74 -45 -7 -132 12 -132 28 0 5 9 26 20 48 49 97 187 151 303 119z"/>
<path d="M4160 6231 c0 -57 14 -89 165 -366 93 -172 186 -325 196 -325 4 0 10
42 14 93 9 115 28 222 49 267 l16 35 -5 -35 c-47 -334 -25 -448 138 -717 29
-48 74 -126 100 -173 74 -136 65 -133 116 -41 58 105 157 236 226 299 99 91
192 122 405 137 47 3 109 10 137 16 l53 10 -31 62 c-17 34 -33 64 -35 66 -2 2
-25 -13 -52 -33 -27 -20 -55 -36 -61 -36 -7 0 -11 29 -12 83 -1 161 -4 168
-115 277 -118 115 -188 154 -315 175 -123 20 -174 41 -212 86 -19 21 -47 43
-63 49 -63 20 -553 112 -631 117 l-83 6 0 -52z m1319 -426 c16 -14 38 -47 48
-73 21 -56 22 -171 1 -221 l-14 -34 -36 37 c-63 65 -92 205 -59 284 16 39 21
39 60 7z m-607 -56 c26 -14 22 -31 -14 -66 -63 -59 -117 -69 -177 -32 l-34 20
29 31 c57 61 135 79 196 47z"/>
<path d="M5503 5350 c-228 -40 -348 -144 -482 -415 -80 -161 -109 -248 -122
-365 -16 -141 -71 -292 -153 -420 -75 -115 -278 -312 -435 -422 -14 -10 -23
-20 -20 -22 2 -2 153 4 334 14 330 19 399 22 380 15 -5 -3 -185 -34 -400 -70
-457 -77 -494 -85 -600 -134 -109 -51 -423 -287 -545 -410 -253 -255 -439
-648 -506 -1067 -9 -55 -18 -192 -21 -307 -5 -187 -4 -207 11 -207 21 0 45 24
94 96 128 189 326 355 567 476 219 111 270 166 299 325 5 31 4 32 -52 48 -146
42 -239 144 -258 283 -6 50 -6 52 18 52 90 0 179 -69 242 -189 62 -118 63 -99
7 101 -12 43 -21 95 -19 115 5 47 6 44 60 -137 38 -128 43 -156 42 -240 0 -79
-5 -105 -26 -155 l-26 -60 61 -7 c284 -31 542 -50 612 -45 147 10 252 61 390
187 49 44 93 80 98 80 6 0 -16 -28 -48 -63 -217 -234 -360 -296 -620 -268
-259 29 -335 25 -500 -24 -167 -50 -389 -187 -519 -319 l-69 -71 99 -6 c144
-10 243 -52 349 -150 55 -51 255 -286 233 -273 -9 5 -80 68 -158 139 -219 201
-240 213 -385 222 -56 4 -100 0 -145 -11 -79 -20 -103 -44 -178 -181 -133
-243 -134 -265 -32 -530 41 -109 83 -201 96 -215 l24 -25 463 -3 c654 -5 933
17 1208 92 408 112 637 257 795 503 95 148 190 388 238 603 77 347 112 1054
95 1930 -16 859 -37 1051 -149 1405 -44 138 -52 145 -159 144 -47 0 -132 -9
-188 -19z m-263 -476 c6 -6 3 -22 -8 -44 -23 -46 -91 -75 -153 -66 -71 11 -77
19 -44 58 48 58 73 69 138 65 31 -2 62 -8 67 -13z m447 -506 c-7 -91 -37 -180
-87 -256 -63 -98 -155 -171 -217 -172 -30 0 -39 49 -23 137 21 122 86 234 175
303 58 45 88 58 129 59 l29 1 -6 -72z m-552 -128 c77 -48 128 -150 129 -262 1
-42 -2 -79 -6 -83 -13 -13 -99 57 -133 108 -39 59 -54 116 -55 200 0 65 10 71
65 37z m486 -345 c24 -8 58 -26 74 -40 l30 -25 -34 -30 c-58 -50 -99 -65 -176
-65 -136 0 -190 56 -114 117 69 56 141 70 220 43z m-766 -324 c63 -28 134
-118 159 -198 7 -22 5 -23 -46 -23 -69 1 -125 27 -171 80 -30 35 -67 113 -67
141 0 22 77 22 125 0z m-507 -321 c32 -20 32 -21 17 -49 -36 -71 -138 -109
-238 -90 -76 14 -81 19 -53 58 64 87 199 126 274 81z m959 -202 c56 -62 77
-159 49 -233 -10 -25 -21 -45 -26 -45 -18 0 -70 72 -81 112 -12 45 -8 114 10
161 13 33 21 34 48 5z m456 16 c34 -13 -42 -176 -108 -229 -59 -49 -168 -85
-209 -69 -40 15 3 130 75 203 74 73 186 117 242 95z m-186 -385 c30 -11 79
-53 94 -82 8 -15 4 -20 -25 -32 -80 -34 -183 -8 -225 57 l-21 33 38 17 c42 20
98 23 139 7z m-907 -164 c0 -65 -55 -146 -123 -180 -57 -28 -127 -34 -127 -10
0 30 41 121 68 151 75 82 182 105 182 39z m-842 -58 c23 -15 42 -32 42 -38 0
-5 -12 -21 -26 -34 -39 -37 -115 -35 -175 3 -24 16 -50 36 -57 45 -12 14 -9
19 20 37 47 30 137 24 196 -13z m1143 -278 c47 -16 122 -74 144 -111 17 -30
17 -32 -1 -45 -35 -26 -88 -33 -175 -24 -46 4 -85 7 -87 6 -1 -1 2 -26 8 -55
16 -86 16 -89 -26 -80 -68 16 -123 94 -124 178 0 34 3 42 18 42 12 0 23 13 31
36 9 24 23 40 44 49 39 17 122 19 168 4z m-610 -640 c48 -17 53 -23 36 -55
-19 -36 -62 -76 -107 -100 -47 -25 -201 -27 -244 -3 l-30 16 53 56 c29 30 71
65 94 76 48 23 144 28 198 10z m-759 -29 c73 -60 113 -196 88 -299 -6 -28 -16
-54 -21 -56 -5 -3 -28 14 -52 38 -56 56 -87 134 -87 221 0 61 15 126 29 126 3
0 23 -14 43 -30z m1094 -401 c60 -37 155 -164 137 -183 -4 -3 -38 -6 -78 -6
-93 0 -162 32 -210 99 -33 45 -53 97 -41 108 12 13 83 19 121 10 22 -4 54 -17
71 -28z m-168 -110 c26 -50 32 -169 8 -169 -46 0 -106 97 -106 172 0 74 6 82
44 59 17 -11 41 -39 54 -62z"/>
</g>
</svg>
